<svg width="282" height="279" viewBox="0 0 282 279" fill="none" xmlns="http://www.w3.org/2000/svg">
<path d="M281.08 68.1058C279.126 82.1704 264.233 87.7638 256.192 89.7762C263.245 117.651 269.266 153.153 265.121 182.987C260.546 215.921 236.813 241.343 206.015 258.072C175.254 274.782 140.177 281.224 117.663 278.096C95.1493 274.969 63.1573 259.209 38.1151 234.748C13.0434 210.257 -2.86149 179.329 1.71363 146.395C6.60933 111.153 20.6617 80.4239 33.9107 58.0685C26.5906 53.4971 15.8734 44.4659 17.6727 31.5136C20.3673 12.1168 38.2759 -1.42303 57.6727 1.27155C68.334 2.7526 74.1277 11.6688 77.1839 19.3993C77.7954 19.2517 78.3986 19.1128 78.9918 18.982C89.9006 16.5765 102.004 15.9339 112.734 15.9892C123.609 16.0452 133.847 16.8278 141.309 17.583C145.059 17.9625 148.154 18.34 150.335 18.6259C151.426 18.769 152.291 18.8896 152.897 18.9765C153.2 19.02 153.439 19.0551 153.609 19.0805L153.709 19.0955L153.813 19.1096C153.988 19.1335 154.231 19.1672 154.539 19.2112C155.155 19.299 156.03 19.4278 157.13 19.5999C159.328 19.9436 162.435 20.4619 166.174 21.1734C173.61 22.5885 183.746 24.8056 194.286 28.0017C204.682 31.1546 216.242 35.4869 226.118 41.3878L226.221 41.4495C231.191 34.5237 239.517 26.5331 250.838 28.1059C270.235 30.8004 283.775 48.709 281.08 68.1058ZM247.561 180.548C252.249 146.8 242.224 103.017 233.487 74.3337C224.939 46.2731 151.205 36.6476 151.205 36.6476C151.205 36.6476 78.0186 25.3473 62.2687 47.1127C47.6046 67.3775 25.4319 104.508 19.2741 148.834C15.75 174.202 27.7653 199.854 50.5036 222.065C73.4198 244.45 102.076 258.032 120.103 260.536C138.129 263.04 169.403 257.784 197.553 242.493C225.484 227.321 244.037 205.916 247.561 180.548Z" fill="#000"/>
</svg>
