<svg width="282" height="279" viewBox="0 0 282 279" fill="#000" xmlns="http://www.w3.org/2000/svg">
    <path fill-rule="evenodd" clip-rule="evenodd" d="M256.192 89.7763C264.233 87.7639 279.126 82.1705 281.08 68.1059C283.775 48.7091 270.235 30.8005 250.838 28.1059C239.517 26.5331 231.191 34.5237 226.221 41.4495L226.118 41.3879C216.242 35.487 204.682 31.1546 194.286 28.0018C183.746 24.8056 173.61 22.5886 166.174 21.1735C162.435 20.4619 159.328 19.9437 157.13 19.5999C156.03 19.4279 155.155 19.2991 154.539 19.2112C154.231 19.1673 153.988 19.1335 153.813 19.1097L153.709 19.0956L153.609 19.0806C153.439 19.0552 153.2 19.0201 152.897 18.9766C152.291 18.8896 151.426 18.7691 150.335 18.626C148.154 18.34 145.059 17.9626 141.309 17.583C133.847 16.8278 123.609 16.0453 112.734 15.9893C102.004 15.934 89.9006 16.5766 78.9917 18.9821C78.3986 19.1129 77.7954 19.2517 77.1839 19.3994C74.1277 11.6689 68.334 2.75266 57.6726 1.27161C38.2758 -1.42297 20.3672 12.1169 17.6727 31.5137C15.8733 44.4659 26.5905 53.4972 33.9107 58.0686C20.6616 80.4239 6.60931 111.153 1.7136 146.395C-2.86151 179.329 13.0434 210.257 38.1151 234.748C63.1573 259.209 95.1493 274.969 117.663 278.096C140.177 281.224 175.254 274.782 206.015 258.072C236.813 241.343 260.546 215.921 265.121 182.987C269.266 153.153 263.245 117.651 256.192 89.7763ZM152.068 30.0049L151.9 29.9822L151.736 29.9576C151.585 29.9351 151.367 29.903 151.085 29.8627C150.522 29.782 149.704 29.6681 148.664 29.5319C146.584 29.2595 143.61 28.8972 139.998 28.5322C132.789 27.8036 122.965 27.0564 112.593 27.003C102.278 26.95 91.1211 27.5793 81.3615 29.7283C71.9125 31.809 62.2121 35.6422 56.7041 43.2431C41.8032 63.8059 19.0239 101.778 12.674 147.422C8.74815 175.642 22.2561 203.225 45.8001 226.191C69.4377 249.247 99.2681 263.605 118.993 266.341C138.717 269.077 171.337 263.383 200.374 247.633C229.295 231.946 249.821 209.084 253.746 180.864C258.638 145.705 248.231 100.946 239.512 72.3646C236.611 62.8545 228.568 55.8543 219.986 50.7338C211.211 45.4982 200.632 41.492 190.678 38.4778C180.666 35.4461 170.975 33.3261 163.813 31.9651C160.224 31.283 157.249 30.7878 155.162 30.4618C154.118 30.2987 153.295 30.1778 152.726 30.0968C152.442 30.0562 152.221 30.0257 152.068 30.0049Z"/>
</svg>
